<svg xmlns="http://www.w3.org/2000/svg" version="1.1" xmlns:xlink="http://www.w3.org/1999/xlink" xmlns:svgjs="http://svgjs.dev/svgjs" width="2000" height="2000" viewBox="0 0 2000 2000"><g transform="matrix(1,0,0,1,-0.28443113772425477,-0.28443113772459583)"><svg viewBox="0 0 334 334" data-background-color="#000000" preserveAspectRatio="xMidYMid meet" height="2000" width="2000" xmlns="http://www.w3.org/2000/svg" xmlns:xlink="http://www.w3.org/1999/xlink"><g id="tight-bounds" transform="matrix(1,0,0,1,0.04749999999998522,0.04750000000001364)"><svg viewBox="0 0 333.90454557049503 333.90454557049503" height="333.90454557049503" width="333.90454557049503"><g><svg></svg></g><g><svg viewBox="0 0 333.90454557049503 333.90454557049503" height="333.90454557049503" width="333.90454557049503"><g><path d="M0 166.952c0-92.205 74.747-166.952 166.952-166.952 92.205 0 166.952 74.747 166.953 166.952 0 92.205-74.747 166.952-166.953 166.953-92.205 0-166.952-74.747-166.952-166.953zM166.952 325.479c87.552 0 158.527-70.975 158.527-158.527 0-87.552-70.975-158.527-158.527-158.526-87.552 0-158.527 70.975-158.526 158.526 0 87.552 70.975 158.527 158.526 158.527z" data-fill-palette-color="tertiary" fill="#000000" stroke="transparent"></path><ellipse rx="160.27418187383762" ry="160.27418187383762" cx="166.95227278524752" cy="166.95227278524752" fill="#000000" stroke="transparent" stroke-width="0" fill-opacity="1" data-fill-palette-color="tertiary"></ellipse></g><g transform="matrix(1,0,0,1,99.85800854842928,71.17305217166896)"><svg viewBox="0 0 134.18852847363647 191.55844122715712" height="191.55844122715712" width="134.18852847363647"><g><svg viewBox="0 0 134.18852847363647 191.55844122715712" height="191.55844122715712" width="134.18852847363647"><g><svg viewBox="0 0 213.1584412271571 304.2905321367092" height="191.55844122715712" width="134.18852847363647"><g transform="matrix(1,0,0,1,0,104.17335664912929)"><svg viewBox="0 0 213.1584412271571 200.1171754875799" height="200.1171754875799" width="213.1584412271571"><g id="textblocktransform"><svg viewBox="0 0 213.1584412271571 200.1171754875799" height="200.1171754875799" width="213.1584412271571" id="textblock"><g><svg viewBox="0 0 213.1584412271571 148.4133240825914" height="148.4133240825914" width="213.1584412271571"><g transform="matrix(1,0,0,1,0,0)"><svg width="213.1584412271571" viewBox="1.1 -34.95 68.14 47.45" height="148.4133240825914" data-palette-color="#000000"><path d="M5.75 0.05L1.1 0.05 8.15-34.95 12.7-34.95 19.65 0.05 15 0.05 13.65-6.5 7-6.5 5.75 0.05ZM10.45-23.55L7.9-11.1 12.85-11.1 10.45-23.55ZM32.25 12.5L25.4 12.5Q23.85 12.5 22.8 11.45 21.75 10.4 21.75 8.85L21.75 8.85 21.75 3.4 26.45 4.5 26.45 6Q26.45 6.7 27 7.25 27.55 7.8 28.25 7.8L28.25 7.8 29.35 7.8Q30.05 7.8 30.6 7.25 31.15 6.7 31.15 6L31.15 6 31.15 0 25.4 0Q23.85 0 22.8-1.05 21.75-2.1 21.75-3.65L21.75-3.65 21.75-25 26.45-25 26.45-6.5Q26.45-5.8 27-5.25 27.55-4.7 28.25-4.7L28.25-4.7 31.15-4.7 31.15-25 35.85-25 35.85 8.85Q35.85 10.4 34.8 11.45 33.75 12.5 32.25 12.5L32.25 12.5ZM52.45 0L41.99 0Q40.49 0 39.42-1.05 38.34-2.1 38.34-3.65L38.34-3.65 38.34-11.2Q38.34-12.7 39.42-13.78 40.49-14.85 41.99-14.85L41.99-14.85 45.89-14.85Q46.7-14.85 47.22-15.38 47.74-15.9 47.74-16.65L47.74-16.65 47.74-18.5Q47.74-19.25 47.22-19.78 46.7-20.3 45.89-20.3L45.89-20.3 40.49-20.3 41.55-25 48.8-25Q50.3-25 51.37-23.93 52.45-22.85 52.45-21.35L52.45-21.35 52.45 0ZM44.84-4.7L44.84-4.7 47.74-4.7 47.74-10.15 44.84-10.15Q44.09-10.15 43.57-9.63 43.05-9.1 43.05-8.35L43.05-8.35 43.05-6.5Q43.05-5.75 43.57-5.23 44.09-4.7 44.84-4.7ZM59.84 0L55.14 0 55.14-25 65.59-25Q67.04-25 68.14-23.95 69.24-22.9 69.24-21.4L69.24-21.4 69.24 0 64.54 0 64.54-18.5Q64.54-19.3 63.99-19.8 63.44-20.3 62.74-20.3L62.74-20.3 59.84-20.3 59.84 0Z" opacity="1" transform="matrix(1,0,0,1,0,0)" fill="#ffffff" class="wordmark-text-0" data-fill-palette-color="quaternary" id="text-0"></path></svg></g></svg></g><g transform="matrix(1,0,0,1,0,183.45014797871326)"><svg viewBox="0 0 213.1584412271571 16.667027508866667" height="16.667027508866667" width="213.1584412271571"><g transform="matrix(1,0,0,1,0,0)"><svg width="213.1584412271571" viewBox="-1.07 -37.022857142825 484.68 37.902857142825006" height="16.667027508866667" data-palette-color="#000000"><path d="M29.13 0.63L26.1-19.04Q26-18.38 25.72-15.94 25.44-13.5 25.1-10.82 24.76-8.13 24.34-5.43 23.93-2.73 23.39-0.98 22.85 0.78 22.31 0.78L22.31 0.78Q21.26 0.78 19.21 0.73 17.16 0.68 16.11 0.68L16.11 0.68Q11.4 0.68 7.42 0.88L7.42 0.88Q7.08 0.71 6.82 0.34 6.57-0.02 6.41-0.54 6.25-1.05 6.16-1.45 6.08-1.86 5.99-2.48 5.91-3.1 5.86-3.32L5.86-3.32Q1.64-23.46 0.63-27.83L0.63-27.83-1.07-36.04Q-1.07-36.72-0.39-36.96L-0.39-36.96Q0.2-36.91 1.46-36.91L1.46-36.91 3.42-36.91Q4-36.91 5.1-36.96 6.2-37.01 6.69-37.01L6.69-37.01Q7.15-37.04 8.06-37 8.96-36.96 9.23-36.96L9.23-36.96 10.64-36.96Q10.89-36.91 11.38-36.91L11.38-36.91 12.11-36.91Q12.55-36.79 12.99-35.23 13.43-33.67 13.82-30.93 14.21-28.2 14.45-26.16 14.7-24.12 15-21.23 15.31-18.33 15.31-18.29L15.31-18.29 18.41-36.87Q19.58-36.77 20.26-36.77L20.26-36.77 21.78-36.77Q23.75-36.77 27.5-36.79 31.25-36.82 33.11-36.82L33.11-36.82Q33.62-36.82 33.74-36.43L33.74-36.43 36.79-16.24Q37.26-21.8 37.94-26.42L37.94-26.42 39.4-36.33Q39.58-36.91 41.11-36.91L41.11-36.91 42.29-36.91Q42.58-36.94 43.2-36.9 43.82-36.87 44.09-36.87L44.09-36.87 46.24-36.87Q47.14-36.87 48.28-36.84 49.41-36.82 49.46-36.82L49.46-36.82 52.34-36.82Q52.56-36.82 52.64-36.49 52.71-36.16 52.76-35.4L52.76-35.4 44.9 0.54Q44.41 0.59 43.73 0.59 43.04 0.59 42.48 0.57 41.92 0.56 41.19 0.55 40.45 0.54 39.99 0.54L39.99 0.54Q38.99 0.54 36.95 0.51 34.91 0.49 33.89 0.49L33.89 0.49Q33.76 0.49 29.13 0.63L29.13 0.63ZM53.71-1.81L53.71-31.54Q53.71-33.01 53.83-33.25L53.83-33.25Q54.05-33.59 54.54-33.59L54.54-33.59 55.12-33.59Q55.52-33.59 55.66-33.54L55.66-33.54 56.93-33.54Q59.4-33.54 64.39-33.67 69.38-33.79 71.87-33.79L71.87-33.79 78.37-33.79Q79-33.72 79-33.15L79-33.15 79-25Q78.98-24.85 78.92-24.74 78.85-24.63 78.82-24.6 78.78-24.56 78.59-24.43 78.39-24.29 78.32-24.22L78.32-24.22 66.99-24.22 66.99-21.19 68.06-21.19Q69.48-21.19 72.39-21.29 75.29-21.39 76.85-21.39L76.85-21.39Q77.54-21.39 77.78-21.12 78.02-20.85 78.02-20.36L78.02-20.36Q78.02-20.24 77.98-19.95 77.93-19.65 77.93-19.53L77.93-19.53 77.93-18.6Q77.93-18.51 77.95-18.2 77.98-17.9 77.98-17.68L77.98-17.68 77.98-16.99Q77.98-16.46 78.02-15.92 78.07-15.38 78.07-14.99L78.07-14.99 78.07-14.36Q77.95-14.06 77.88-13.96 77.81-13.87 77.63-13.87L77.63-13.87 77.63-13.92Q76.73-13.92 74.52-13.79 72.31-13.67 70.99-13.67L70.99-13.67 67.09-13.67 67.09-10.55Q67.28-10.55 67.67-10.52 68.06-10.5 68.26-10.5L68.26-10.5Q69.36-10.5 71.51-10.57 73.65-10.64 74.61-10.64L74.61-10.64 77.73-10.64Q79-10.64 79.34-10.35L79.34-10.35Q79.47-10.21 79.54-10.06L79.54-10.06 79.54-2.25Q79.54-1.73 79.34-1.46 79.15-1.2 78.61-1.17L78.61-1.17 54.44-1.17 53.71-1.81ZM108-18.26L108-18.26Q109.25-18.26 110.3-17.48 111.35-16.7 111.98-15.52 112.62-14.33 112.97-13.05 113.33-11.77 113.33-10.64L113.33-10.64Q113.23-7.67 111.63-5.46 110.03-3.25 107.37-2.29L107.37-2.29 105.32-1.07 82.27-1.07 82.27-33.89 100.83-33.89Q106.34-33.89 109.57-31.54L109.57-31.54Q110.98-30.62 111.71-28.86 112.45-27.1 112.45-25.15L112.45-25.15Q112.45-22.66 111.36-21.14 110.27-19.63 108-18.26ZM95.36-15.14L95.36-15.14 94.38-9.06Q94.38-8.96 94.72-8.83 95.06-8.69 95.31-8.64L95.31-8.64 97.21-8.64Q98.8-8.76 99.76-9.44 100.73-10.11 100.73-11.67L100.73-11.67Q100.73-12.23 100.61-12.7 100.48-13.16 100.3-13.5 100.12-13.84 99.8-14.11 99.48-14.38 99.2-14.55 98.92-14.72 98.46-14.83 97.99-14.94 97.69-15 97.38-15.06 96.88-15.1 96.38-15.14 96.11-15.14 95.84-15.14 95.36-15.14ZM94.87-25.88L94.87-25.88Q95.06-24.78 95.06-23.34L95.06-23.34 95.06-22.85Q95.06-22.78 95.04-22.61 95.01-22.44 95.01-22.36L95.01-22.36Q95.01-22.27 95.04-21.94 95.06-21.61 95.06-21.39L95.06-21.39 95.06-20.61Q95.06-20.34 95.26-20.26L95.26-20.26Q95.89-20.26 96.26-20.29 96.63-20.31 97.32-20.39 98.02-20.46 98.46-20.68 98.9-20.9 99.36-21.25 99.82-21.61 100.06-22.22 100.29-22.83 100.29-23.63L100.29-23.63Q100.29-24.73 99.56-25.42 98.82-26.1 97.9-26.31 96.97-26.51 95.8-26.51L95.8-26.51Q95.7-26.46 95.26-26.46L95.26-26.46 95.26-26.51Q94.87-26.37 94.87-25.88ZM135.59-24.12L135.59-24.12Q134.93-24.12 134.51-24.32 134.1-24.51 133.85-24.8 133.61-25.1 133.31-25.39 133-25.68 132.34-25.88 131.68-26.07 130.66-26.07L130.66-26.07Q130.34-26.07 129.89-26.01 129.44-25.95 128.9-25.68 128.36-25.42 128.36-25L128.36-25Q128.36-24.54 128.81-24.21 129.26-23.88 129.84-23.74 130.41-23.61 131.13-23.43 131.85-23.24 132.15-23.1L132.15-23.1 135.73-22.22Q137.32-21.78 138.59-21.29 139.86-20.8 141.29-19.96 142.72-19.12 143.67-18.09 144.62-17.07 145.26-15.52 145.89-13.96 145.89-12.11L145.89-12.11Q145.89-9.86 145.31-8.11L145.31-8.11 145.31-8.15Q144.79-6.59 143.86-5.36 142.94-4.13 141.67-3.31 140.4-2.49 139.1-1.94 137.81-1.39 136.11-1.06 134.42-0.73 133.09-0.57 131.76-0.42 130.02-0.29L130.02-0.29Q122.33-0.68 119.72-2.73L119.72-2.73 119.72-3.03Q117.5-4.69 116.44-6.64 115.37-8.59 115.18-11.04L115.18-11.04Q115.18-11.62 115.72-11.62L115.72-11.62Q115.86-11.62 116.15-11.6 116.45-11.57 116.59-11.57L116.59-11.57 119.08-11.57Q119.43-11.62 120.06-11.62L120.06-11.62 120.7-11.62Q120.89-11.62 121.04-11.57L121.04-11.57Q122.45-11.62 125.87-11.62L125.87-11.62 126.99-11.62Q127.48-11.62 127.75-11.33 128.02-11.04 128.18-10.61 128.34-10.18 128.54-9.75 128.75-9.33 129.29-9.03 129.83-8.74 130.71-8.74L130.71-8.74Q131.66-8.74 132.43-9.24 133.2-9.74 133.2-10.69L133.2-10.69Q133.2-11.13 132.78-11.52 132.37-11.91 131.54-12.23 130.71-12.55 130.06-12.74 129.41-12.94 128.31-13.21 127.21-13.48 126.9-13.57L126.9-13.57 125.43-13.57Q120.13-15.14 117.8-17.54 115.47-19.95 115.47-23.63L115.47-23.63Q115.47-26.07 116.39-28.03 117.3-29.98 118.8-31.23 120.31-32.47 122.33-33.31 124.36-34.16 126.46-34.51 128.56-34.86 130.8-34.86L130.8-34.86Q134.78-34.86 138.19-33.53 141.59-32.2 143.35-30.08L143.35-30.08Q143.99-29.44 144.38-28.47 144.77-27.49 144.88-26.92 144.99-26.34 145.16-25L145.16-25 144.47-24.02 140.32-24.02Q139.64-24.02 138.05-24.07 136.47-24.12 135.59-24.12ZM161.71-0.93L148.33-0.93 148.33-33.01Q148.35-33.2 148.72-33.36 149.09-33.52 149.16-33.59L149.16-33.59 162.29-33.59 162.29-1.81Q162.17-1.29 162.06-1.11 161.95-0.93 161.71-0.93L161.71-0.93ZM164.44-24.71L164.44-24.71 164.44-33.5 192.86-33.5Q193.25-33.42 193.35-33.19 193.44-32.96 193.44-32.52L193.44-32.52 193.44-24.71Q193.4-24.12 192.76-24.12L192.76-24.12 185.83-24.12 185.83-1.66Q185.83-1.64 185.8-1.54 185.78-1.44 185.78-1.42 185.78-1.39 185.75-1.32 185.73-1.25 185.71-1.22 185.68-1.2 185.66-1.14 185.63-1.07 185.6-1.06 185.56-1.05 185.5-1.01 185.44-0.98 185.38-0.95 185.31-0.93 185.23-0.92 185.14-0.9 185.05-0.88L185.05-0.88 183.48-0.88Q180.36-0.88 180.36-1.07L180.36-1.07Q180.16-1.07 179.77-1.05 179.38-1.03 179.19-1.03L179.19-1.03 177.23-1.03Q176.67-1.03 175.63-1 174.6-0.98 174.01-0.98L174.01-0.98 172.64-0.98 171.67-1.66 171.67-6.93Q171.69-8.35 171.87-12.99 172.06-17.63 172.06-20.31L172.06-20.31 172.06-20.95Q172.06-21.14 172.08-21.56 172.11-21.97 172.11-22.17L172.11-22.17Q172.11-22.39 172.08-23.06 172.06-23.73 172.06-23.93L172.06-23.93 165.95-23.93Q165.42-23.93 164.93-24.11 164.44-24.29 164.44-24.71ZM195.3-1.81L195.3-31.54Q195.3-33.01 195.42-33.25L195.42-33.25Q195.64-33.59 196.13-33.59L196.13-33.59 196.71-33.59Q197.1-33.59 197.25-33.54L197.25-33.54 198.52-33.54Q200.99-33.54 205.98-33.67 210.97-33.79 213.46-33.79L213.46-33.79 219.96-33.79Q220.59-33.72 220.59-33.15L220.59-33.15 220.59-25Q220.57-24.85 220.51-24.74 220.44-24.63 220.41-24.6 220.37-24.56 220.18-24.43 219.98-24.29 219.91-24.22L219.91-24.22 208.58-24.22 208.58-21.19 209.65-21.19Q211.07-21.19 213.97-21.29 216.88-21.39 218.44-21.39L218.44-21.39Q219.13-21.39 219.37-21.12 219.61-20.85 219.61-20.36L219.61-20.36Q219.61-20.24 219.57-19.95 219.52-19.65 219.52-19.53L219.52-19.53 219.52-18.6Q219.52-18.51 219.54-18.2 219.57-17.9 219.57-17.68L219.57-17.68 219.57-16.99Q219.57-16.46 219.61-15.92 219.66-15.38 219.66-14.99L219.66-14.99 219.66-14.36Q219.54-14.06 219.47-13.96 219.39-13.87 219.22-13.87L219.22-13.87 219.22-13.92Q218.32-13.92 216.11-13.79 213.9-13.67 212.58-13.67L212.58-13.67 208.68-13.67 208.68-10.55Q208.87-10.55 209.26-10.52 209.65-10.5 209.85-10.5L209.85-10.5Q210.95-10.5 213.1-10.57 215.24-10.64 216.2-10.64L216.2-10.64 219.32-10.64Q220.59-10.64 220.93-10.35L220.93-10.35Q221.05-10.21 221.13-10.06L221.13-10.06 221.13-2.25Q221.13-1.73 220.93-1.46 220.74-1.2 220.2-1.17L220.2-1.17 196.03-1.17 195.3-1.81ZM242.8-24.12L242.8-24.12Q242.15-24.12 241.73-24.32 241.32-24.51 241.07-24.8 240.83-25.1 240.52-25.39 240.22-25.68 239.56-25.88 238.9-26.07 237.87-26.07L237.87-26.07Q237.56-26.07 237.1-26.01 236.65-25.95 236.12-25.68 235.58-25.42 235.58-25L235.58-25Q235.58-24.54 236.03-24.21 236.48-23.88 237.06-23.74 237.63-23.61 238.35-23.43 239.07-23.24 239.36-23.1L239.36-23.1 242.95-22.22Q244.54-21.78 245.81-21.29 247.08-20.8 248.51-19.96 249.93-19.12 250.89-18.09 251.84-17.07 252.47-15.52 253.11-13.96 253.11-12.11L253.11-12.11Q253.11-9.86 252.52-8.11L252.52-8.11 252.52-8.15Q252.01-6.59 251.08-5.36 250.15-4.13 248.88-3.31 247.61-2.49 246.32-1.94 245.03-1.39 243.33-1.06 241.63-0.73 240.3-0.57 238.97-0.42 237.24-0.29L237.24-0.29Q229.55-0.68 226.94-2.73L226.94-2.73 226.94-3.03Q224.71-4.69 223.65-6.64 222.59-8.59 222.39-11.04L222.39-11.04Q222.39-11.62 222.93-11.62L222.93-11.62Q223.08-11.62 223.37-11.6 223.66-11.57 223.81-11.57L223.81-11.57 226.3-11.57Q226.64-11.62 227.28-11.62L227.28-11.62 227.91-11.62Q228.11-11.62 228.25-11.57L228.25-11.57Q229.67-11.62 233.09-11.62L233.09-11.62 234.21-11.62Q234.7-11.62 234.97-11.33 235.24-11.04 235.4-10.61 235.55-10.18 235.76-9.75 235.97-9.33 236.51-9.03 237.04-8.74 237.92-8.74L237.92-8.74Q238.87-8.74 239.64-9.24 240.41-9.74 240.41-10.69L240.41-10.69Q240.41-11.13 240-11.52 239.58-11.91 238.75-12.23 237.92-12.55 237.27-12.74 236.63-12.94 235.53-13.21 234.43-13.48 234.11-13.57L234.11-13.57 232.65-13.57Q227.35-15.14 225.02-17.54 222.69-19.95 222.69-23.63L222.69-23.63Q222.69-26.07 223.6-28.03 224.52-29.98 226.02-31.23 227.52-32.47 229.55-33.31 231.57-34.16 233.67-34.51 235.77-34.86 238.02-34.86L238.02-34.86Q242-34.86 245.4-33.53 248.81-32.2 250.57-30.08L250.57-30.08Q251.2-29.44 251.59-28.47 251.98-27.49 252.09-26.92 252.2-26.34 252.38-25L252.38-25 251.69-24.02 247.54-24.02Q246.86-24.02 245.27-24.07 243.68-24.12 242.8-24.12ZM271.61-0.98L270.97-2.05 270.97-33.01Q270.97-33.4 271.22-33.58 271.46-33.76 271.67-33.78 271.88-33.79 272.44-33.79L272.44-33.79 295.49-33.79Q295.68-33.79 295.8-33.73 295.92-33.67 296-33.61 296.07-33.54 296.1-33.41 296.12-33.28 296.13-33.2 296.14-33.13 296.13-32.98 296.12-32.84 296.12-32.81L296.12-32.81 296.12-24.51 284.69-24.51 284.69-23.63Q284.69-23.34 284.79-22.07L284.79-22.07 287.09-22.07Q287.43-22.09 288.32-22.23 289.21-22.36 289.72-22.36L289.72-22.36 291.73-22.36Q292.41-22.36 292.75-22.41L292.75-22.41Q293.75-22.41 294.58-22.17 295.41-21.92 295.49-21.63L295.49-21.63 295.49-20.21Q295.49-19.75 295.44-18.79 295.39-17.82 295.39-17.33L295.39-17.33 295.39-15.14Q295.44-14.94 295.44-14.45L295.44-14.45 295.44-13.48Q295.34-12.7 293.92-12.7L293.92-12.7 292.36-12.7Q291.53-12.7 289.98-12.65 288.43-12.6 287.58-12.6L287.58-12.6 284.84-12.6 284.84-0.98 271.61-0.98ZM296.8-16.21L296.8-17.68 296.75-18.21Q297.22-22.19 297.63-23.75L297.63-23.75Q298.58-27.42 301.05-29.88L301.05-29.88 301.64-30.47Q302.81-31.84 305.2-32.81L305.2-32.81 306.13-32.81Q308.52-33.81 313.99-34.67L313.99-34.67Q315.36-34.67 316.86-34.46 318.36-34.25 320.19-33.78 322.02-33.3 323.72-32.26 325.41-31.23 326.54-29.79L326.54-29.79 326.54-29.1Q330.54-24.1 330.54-17.87L330.54-17.87Q330.54-10.86 327.32-6.45L327.32-6.45 326.34-5.22Q325.22-3.83 323.55-2.83 321.87-1.83 319.99-1.31 318.11-0.78 316.39-0.56 314.67-0.34 312.96-0.34L312.96-0.34Q310.45-0.34 308.17-0.94 305.88-1.54 303.89-2.81 301.9-4.08 300.39-5.93 298.88-7.79 297.94-10.41 297-13.04 296.8-16.21L296.8-16.21ZM310.23-18.55L310.23-17.48Q310.23-8.89 313.5-8.89L313.5-8.89Q314.4-8.89 315.08-9.23 315.75-9.57 316.16-10.28 316.58-10.99 316.85-11.72 317.11-12.45 317.22-13.55 317.33-14.65 317.37-15.48 317.41-16.31 317.41-17.48L317.41-17.48 317.41-18.36Q317.41-19.63 317.26-20.8 317.11-21.97 316.76-23.16 316.41-24.34 315.67-25.06 314.94-25.78 313.89-25.78L313.89-25.78Q310.23-25.78 310.23-18.55L310.23-18.55ZM334.05-0.98L334.05-33.59 338.6-33.59Q340.7-33.59 345.31-33.69 349.92-33.79 352.22-33.79L352.22-33.79Q354.2-33.79 355.92-33.57 357.64-33.35 359.31-32.76 360.98-32.18 362.17-31.27 363.35-30.37 364.08-28.89 364.82-27.42 364.82-25.49L364.82-25.49Q364.82-22.83 363.57-20.95 362.33-19.07 359.74-17.77L359.74-17.77Q360.76-17.33 361.52-16.63 362.28-15.92 362.68-15.41 363.08-14.89 363.46-13.68 363.84-12.48 363.91-12.1 363.99-11.72 364.23-10.23L364.23-10.23Q364.3-9.89 364.33-9.72L364.33-9.72Q364.43-8.74 365.16-6.14 365.89-3.54 365.89-2.15L365.89-2.15Q365.89-1.27 365.35-1.27L365.35-1.27Q363.89-1.27 360.92-1.25 357.96-1.22 356.52-1.22L356.52-1.22Q355.93-1.27 354.76-1.27L354.76-1.27 353.1-1.27Q352.61-1.42 352.15-2.78 351.68-4.15 351.49-5.86L351.49-5.86 350.95-10.21Q350.8-10.74 350.72-10.97 350.63-11.21 350.41-11.54 350.19-11.87 349.81-11.99 349.44-12.11 348.85-12.11L348.85-12.11 347.73-12.11 347.73-2.34Q347.73-2.27 347.73-2.11 347.73-1.95 347.73-1.89 347.73-1.83 347.73-1.71 347.73-1.59 347.7-1.53 347.68-1.46 347.65-1.37 347.63-1.27 347.59-1.23 347.56-1.2 347.49-1.14 347.43-1.07 347.35-1.05 347.26-1.03 347.15-1 347.04-0.98 346.9-0.98L346.9-0.98 334.05-0.98ZM347.87-20.7L347.87-20.7Q347.92-20.65 348.02-20.5 348.12-20.34 348.21-20.24 348.31-20.14 348.41-20.12L348.41-20.12Q349.14-20.12 349.87-20.28 350.61-20.43 351.38-20.8 352.15-21.17 352.62-21.92 353.1-22.68 353.1-23.73L353.1-23.73Q353.1-26.27 348.21-26.27L348.21-26.27Q347.73-26.15 347.73-25.88L347.73-25.88 347.73-24.95Q347.73-24.24 347.8-22.83 347.87-21.41 347.87-20.7ZM381.46-33.69L394.38-33.69 398.21-21.63Q400.07-26.59 401.68-31.54L401.68-31.54Q401.73-31.74 401.97-32.28 402.21-32.81 402.26-33.15L402.26-33.15Q402.46-33.74 404.9-33.74L404.9-33.74Q405.07-33.74 405.38-33.72 405.68-33.69 405.88-33.69L405.88-33.69Q409.86-33.74 414.47-33.79L414.47-33.79Q415.06-33.72 415.3-32.59L415.3-32.59 404.22-12.52 404.61-10.89Q404.61-9.47 404.66-6.57 404.7-3.66 404.7-2.54L404.7-2.54 404.7-1.81Q404.61-1.46 404.33-1.25 404.04-1.03 403.54-0.96 403.04-0.9 402.67-0.89 402.29-0.88 401.59-0.9 400.9-0.93 400.65-0.93L400.65-0.93 391.32-0.93 390.54-1.95 390.54-12.16 384.9-24.19 382.29-27.86Q380.29-31.86 380.29-33.01L380.29-33.01Q380.29-33.69 381.46-33.69L381.46-33.69ZM414.91-16.21L414.91-17.68 414.86-18.21Q415.32-22.19 415.74-23.75L415.74-23.75Q416.69-27.42 419.15-29.88L419.15-29.88 419.74-30.47Q420.91-31.84 423.3-32.81L423.3-32.81 424.23-32.81Q426.63-33.81 432.09-34.67L432.09-34.67Q433.46-34.67 434.96-34.46 436.46-34.25 438.3-33.78 440.13-33.3 441.82-32.26 443.52-31.23 444.64-29.79L444.64-29.79 444.64-29.1Q448.65-24.1 448.65-17.87L448.65-17.87Q448.65-10.86 445.42-6.45L445.42-6.45 444.45-5.22Q443.32-3.83 441.65-2.83 439.98-1.83 438.1-1.31 436.22-0.78 434.5-0.56 432.78-0.34 431.07-0.34L431.07-0.34Q428.55-0.34 426.27-0.94 423.99-1.54 422-2.81 420.01-4.08 418.5-5.93 416.98-7.79 416.04-10.41 415.1-13.04 414.91-16.21L414.91-16.21ZM428.33-18.55L428.33-17.48Q428.33-8.89 431.61-8.89L431.61-8.89Q432.51-8.89 433.18-9.23 433.85-9.57 434.27-10.28 434.68-10.99 434.95-11.72 435.22-12.45 435.33-13.55 435.44-14.65 435.48-15.48 435.51-16.31 435.51-17.48L435.51-17.48 435.51-18.36Q435.51-19.63 435.37-20.8 435.22-21.97 434.86-23.16 434.51-24.34 433.78-25.06 433.05-25.78 432-25.78L432-25.78Q428.33-25.78 428.33-18.55L428.33-18.55ZM451.96-27.93L451.96-27.88Q451.87-28.37 451.87-30.66L451.87-30.66Q451.87-33.3 452.36-33.79L452.36-33.79 465.64-33.79 465.64-13.28Q465.64-10.11 467.49-10.11L467.49-10.11Q468.27-10.11 468.79-10.8 469.3-11.5 469.3-12.45L469.3-12.45 469.3-16.06Q469.44-26.76 469.44-26.86L469.44-26.86Q469.44-31.1 469.35-33.01L469.35-33.01Q469.35-33.69 470.03-33.98L470.03-33.98 483.61-33.98 483.61-30.18Q483.29-20.92 483.21-18.26L483.21-18.26 483.21-16.75Q483.21-16.46 483.19-15.97 483.17-15.48 483.17-15.28L483.17-15.28Q483.17-14.45 483.21-14.11L483.21-14.11 483.21-12.21Q483.21-8.81 482.53-7.32L482.53-7.32 482.53-7.23Q481.75-5.4 480.28-4.06 478.82-2.73 476.94-1.99 475.06-1.25 473.08-0.92 471.11-0.59 468.91-0.59L468.91-0.59Q468.22-0.59 467.88-0.73L467.88-0.73 467.3-0.73Q467.3-0.49 466.56-0.49L466.56-0.49 466.56-0.44Q466.03-0.42 463.44-0.68L463.44-0.68 462.32-0.68Q460.78-0.85 459.35-1.37 457.92-1.88 456.58-2.82 455.24-3.76 454.22-5.05 453.21-6.35 452.57-8.2 451.94-10.06 451.87-12.26L451.87-12.26Q451.89-13.53 451.88-15.77 451.87-18.02 451.89-19.86 451.92-21.7 452.01-23.44L452.01-23.44 452.01-24.12Q452.01-24.24 452.04-24.51 452.06-24.78 452.06-24.9L452.06-24.9Q452.06-25.27 452.01-26 451.96-26.73 451.96-27.1L451.96-27.1 451.96-27.93Z" opacity="1" transform="matrix(1,0,0,1,0,0)" fill="#ffffff" class="slogan-text-1" data-fill-palette-color="quaternary" id="text-1"></path></svg></g></svg></g></svg></g></svg></g><g transform="matrix(1,0,0,1,40.713262274387006,0)"><svg viewBox="0 0 131.7319166783831 69.13653275300744" height="69.13653275300744" width="131.7319166783831"><g><svg xmlns="http://www.w3.org/2000/svg" xmlns:xlink="http://www.w3.org/1999/xlink" version="1.1" x="0" y="0" viewBox="5 26.381999999999998 90.001 47.23499999999998" enable-background="new 0 0 100 100" xml:space="preserve" height="69.13653275300744" width="131.7319166783831" class="icon-icon-0" data-fill-palette-color="quaternary" id="icon-0"><g fill="#000000" data-fill-palette-color="quaternary"><path fill="none" d="M49.999 28.675c0.375 0 0.681-0.304 0.681-0.68v0C50.68 28.37 50.375 28.674 49.999 28.675c-0.375-0.001-0.68-0.305-0.68-0.681s0.305-0.68 0.68-0.68c-0.376 0-0.681 0.305-0.681 0.681S49.623 28.675 49.999 28.675z"></path><path fill="none" d="M54.303 70.682h-8.607c-0.375 0-0.68 0.305-0.68 0.68v0.001c0.001-0.374 0.305-0.679 0.68-0.679h8.607c0.375 0 0.677 0.305 0.68 0.679v-0.001C54.982 70.986 54.678 70.682 54.303 70.682z"></path><path d="M86.627 69.107c0.109-0.226 0.176-0.478 0.176-0.746V28.107c0-0.953-0.771-1.725-1.725-1.725H14.919c-0.953 0-1.725 0.771-1.725 1.725v40.254c0 0.271 0.065 0.521 0.176 0.746H5v2.785c0 0.949 0.773 1.725 1.727 1.725h86.546c0.953 0 1.728-0.773 1.728-1.725v-2.785H86.627zM49.999 27.314c0.375 0 0.681 0.305 0.681 0.68v0 0c0 0.376-0.306 0.68-0.681 0.68-0.376 0-0.681-0.304-0.681-0.68S49.623 27.314 49.999 27.314zM16.143 29.709h67.712v36.568H16.143V29.709zM54.982 71.363c0 0.378-0.305 0.683-0.68 0.683h-8.607c-0.375 0-0.68-0.305-0.68-0.683v-0.001-0.001c0-0.375 0.305-0.68 0.68-0.68h8.607c0.375 0 0.68 0.305 0.68 0.68V71.363L54.982 71.363z" fill="#ffffff" data-fill-palette-color="quaternary"></path><polygon points="31.736,50.861 44.194,56.648 44.194,53.898 34.772,49.771 34.772,49.719 44.194,45.592 44.194,42.84    31.736,48.628  " fill="#ffffff" data-fill-palette-color="quaternary"></polygon><polygon points="46.119,57.688 48.74,57.688 54.295,38.87 51.673,38.87  " fill="#ffffff" data-fill-palette-color="quaternary"></polygon><polygon points="55.801,45.592 65.432,49.719 65.432,49.771 55.801,53.898 55.801,56.648 68.26,50.939 68.26,48.551 55.801,42.84     " fill="#ffffff" data-fill-palette-color="quaternary"></polygon></g></svg></g></svg></g><g></g></svg></g></svg></g></svg></g></svg></g><defs></defs></svg><rect width="333.90454557049503" height="333.90454557049503" fill="none" stroke="none" visibility="hidden"></rect></g></svg></g></svg>