<svg id="ebv9iDBkf2L1" xmlns="http://www.w3.org/2000/svg" xmlns:xlink="http://www.w3.org/1999/xlink" viewBox="0 0 1200 1200" shape-rendering="geometricPrecision" text-rendering="geometricPrecision">
<style><![CDATA[
#ebv9iDBkf2L2 {animation: ebv9iDBkf2L2_c_o 3000ms linear 1 normal forwards}@keyframes ebv9iDBkf2L2_c_o { 0% {opacity: 0} 46.666667% {opacity: 1} 100% {opacity: 1}} #ebv9iDBkf2L9_to {animation: ebv9iDBkf2L9_to__to 3000ms linear 1 normal forwards}@keyframes ebv9iDBkf2L9_to__to { 0% {transform: translate(528.498871px,612.522247px)} 33.333333% {transform: translate(303.498871px,612.522247px)} 100% {transform: translate(303.498871px,612.522247px)}} #ebv9iDBkf2L9_ts {animation: ebv9iDBkf2L9_ts__ts 3000ms linear 1 normal forwards}@keyframes ebv9iDBkf2L9_ts__ts { 0% {transform: scale(0,0)} 33.333333% {transform: scale(1,1)} 100% {transform: scale(1,1)}} #ebv9iDBkf2L9 {animation: ebv9iDBkf2L9_c_o 3000ms linear 1 normal forwards}@keyframes ebv9iDBkf2L9_c_o { 0% {opacity: 0} 33.333333% {opacity: 1} 100% {opacity: 1}} #ebv9iDBkf2L21_to {animation: ebv9iDBkf2L21_to__to 3000ms linear 1 normal forwards}@keyframes ebv9iDBkf2L21_to__to { 0% {transform: translate(533.157288px,577.527267px)} 23.333333% {transform: translate(686.157288px,577.527267px)} 100% {transform: translate(686.157288px,577.527267px)}} #ebv9iDBkf2L21_ts {animation: ebv9iDBkf2L21_ts__ts 3000ms linear 1 normal forwards}@keyframes ebv9iDBkf2L21_ts__ts { 0% {transform: scale(0,0)} 23.333333% {transform: scale(1,1)} 100% {transform: scale(1,1)}} #ebv9iDBkf2L21 {animation: ebv9iDBkf2L21_c_o 3000ms linear 1 normal forwards}@keyframes ebv9iDBkf2L21_c_o { 0% {opacity: 0} 23.333333% {opacity: 1} 100% {opacity: 1}} #ebv9iDBkf2L22_to {animation: ebv9iDBkf2L22_to__to 3000ms linear 1 normal forwards}@keyframes ebv9iDBkf2L22_to__to { 0% {transform: translate(531.899109px,599.987457px)} 30% {transform: translate(877.899109px,599.987457px)} 100% {transform: translate(877.899109px,599.987457px)}} #ebv9iDBkf2L22_ts {animation: ebv9iDBkf2L22_ts__ts 3000ms linear 1 normal forwards}@keyframes ebv9iDBkf2L22_ts__ts { 0% {transform: scale(0,0)} 30% {transform: scale(1,1)} 100% {transform: scale(1,1)}} #ebv9iDBkf2L22 {animation: ebv9iDBkf2L22_c_o 3000ms linear 1 normal forwards}@keyframes ebv9iDBkf2L22_c_o { 0% {opacity: 0} 30% {opacity: 1} 100% {opacity: 1}} #ebv9iDBkf2L23_to {animation: ebv9iDBkf2L23_to__to 3000ms linear 1 normal forwards}@keyframes ebv9iDBkf2L23_to__to { 0% {transform: translate(531.659119px,622.630707px)} 26.666667% {transform: translate(779.659119px,622.630707px)} 100% {transform: translate(779.659119px,622.630707px)}} #ebv9iDBkf2L23_ts {animation: ebv9iDBkf2L23_ts__ts 3000ms linear 1 normal forwards}@keyframes ebv9iDBkf2L23_ts__ts { 0% {transform: scale(0,0)} 26.666667% {transform: scale(1,1)} 100% {transform: scale(1,1)}} #ebv9iDBkf2L23 {animation: ebv9iDBkf2L23_c_o 3000ms linear 1 normal forwards}@keyframes ebv9iDBkf2L23_c_o { 0% {opacity: 0} 26.666667% {opacity: 1} 100% {opacity: 1}} #ebv9iDBkf2L24_to {animation: ebv9iDBkf2L24_to__to 3000ms linear 1 normal forwards}@keyframes ebv9iDBkf2L24_to__to { 0% {transform: translate(531.9px,598.02179px)} 33.333333% {transform: translate(972.9px,598.02179px)} 100% {transform: translate(972.9px,598.02179px)}} #ebv9iDBkf2L24_ts {animation: ebv9iDBkf2L24_ts__ts 3000ms linear 1 normal forwards}@keyframes ebv9iDBkf2L24_ts__ts { 0% {transform: scale(0,0)} 33.333333% {transform: scale(1,1)} 100% {transform: scale(1,1)}} #ebv9iDBkf2L24 {animation: ebv9iDBkf2L24_c_o 3000ms linear 1 normal forwards}@keyframes ebv9iDBkf2L24_c_o { 0% {opacity: 0} 33.333333% {opacity: 1} 100% {opacity: 1}} #ebv9iDBkf2L25_ts {animation: ebv9iDBkf2L25_ts__ts 3000ms linear 1 normal forwards}@keyframes ebv9iDBkf2L25_ts__ts { 0% {transform: translate(530.633484px,601.000061px) scale(0,0)} 16.666667% {transform: translate(530.633484px,601.000061px) scale(1,1)} 100% {transform: translate(530.633484px,601.000061px) scale(1,1)}} #ebv9iDBkf2L25 {animation: ebv9iDBkf2L25_c_o 3000ms linear 1 normal forwards}@keyframes ebv9iDBkf2L25_c_o { 0% {opacity: 0} 16.666667% {opacity: 1} 100% {opacity: 1}}
]]></style>
<g id="ebv9iDBkf2L2" opacity="0"><path d="M638,1201c-212.666656,0-424.833328,0-637,0C1,801,1,401,1,1C401,1,801,1,1201,1c0,400,0,800,0,1200-187.5,0-375,0-563,0M378.5,655c17.425049,0,34.850098,0,52.5,0c0-2.118286,0-3.599121,0-5.079895.000031-48.327637.003235-96.655273-.002319-144.98291-.001221-10.427918-9.553284-19.935028-20.020691-19.935517-71.658203-.003295-143.316437-.003723-214.97464.000275-10.631577.00061-19.99939,9.347138-20.000427,19.952973-.004685,48.327606-.001984,96.655242-.001923,144.982879c0,1.599304,0,3.19867,0,5.062195c67.565506,0,134.532745,0,202.5,0m-17,42.99939c15.995422.000061,31.990845.018005,47.986206-.009156c5.751373-.009826,10.67807-2.145568,14.971375-5.939941c9.274963-8.197266,5.981964-18.868897,6.463745-28.66333-85.395325,0-170.10791,0-254.921585,0c0,4.383667.26921,8.402832-.05069,12.374573-.944214,11.722534,8.981155,22.416381,22.545837,22.293029c22.325165-.203125,44.653534-.05487,66.980545-.054687c1.7836,0,3.5672,0,6.010315,0-3.38327,11.398437-6.577942,22.161316-9.795196,33.000366-1.157044,0-1.985535.069397-2.798981-.011902-3.696335-.369629-6.525192,1.268677-6.737549,4.833191-.276047,4.633728,3.61612,4.18103,6.778656,4.180664c29.658264-.003662,59.316651-.034485,88.974701.042481c3.360901.008728,6.919556.008239,6.889771-4.180664-.025727-3.613648-2.950928-4.924195-6.63086-5.022461-1.401855-.037476-3.580475-1.60669-4.000152-2.92511-3.131836-9.838623-5.911225-19.789429-8.862854-29.917053c8.543426,0,16.870056,0,26.196716,0m277.131592-53.999512c3.325317,0,6.650696,0,9.918579,0c5.881042-11.112488,11.731995-22.006592,17.415222-32.98761c2.214966-4.279907,4.812866-6.718018,10.277893-6.133484c6.421143.686829,12.973328.145081,19.468689.142029c7.576782-.003601,15.153565-.000793,23.126221-.000793c1.959717,12.604248,4.007934,25.777771,6.005798,38.627685c6.27478,0,11.649719,0,17.070435,0-7.237915-44.104065-14.418091-87.855774-21.653687-131.945618-2.975281-.219574-6.248535-.771057-9.489624-.622314-4.117676.188965-7.551147.956299-9.926269,5.657227-6.461548,12.789184-13.777588,25.147277-20.777039,37.663818-7.336792,13.119629-14.703918,26.222168-22.049133,39.337036-5.8349,10.418335-11.698548,20.820923-17.468567,31.275085-3.380615,6.125123-6.602722,12.337708-10.149964,18.986817c2.990662,0,5.149598,0,8.231446.000122m243.676513-90.066406c-2.814636.696411-5.875915.900512-8.404785,2.167358-19.55426,9.795837-30.174072,26.668396-35.766662,46.994263-2.240113,8.141601-3.139221,16.654846-1.177063,25.21521c2.477966,10.810913,8.655761,17.951233,20.124817,18.601684c9.831665.557617,17.84613-4.098205,24.92102-10.462707c2.533325-2.278992,4.789917-4.865601,7.994934-8.155823c0,2.540283-.010315,3.803406.001587,5.066284.111511,11.881653,3.144592,14.192383,13.9776,10.589661c1.636963-.544312,3.202088-1.304505,4.267761-1.744812-.45581-4.021912-1.032592-7.503418-1.216064-11.005432-.842041-16.072266,5.393616-30.991638,7.768616-46.549012c1.366882-8.953979,3.58612-17.776,5.104553-26.711303.187744-1.10492-1.42749-3.493225-2.470581-3.662232-4.676331-.757934-9.444641-1.190612-14.18573-1.247375-6.736084-.080689-13.477234.271057-20.940003.904236M770.016968,662.473816c1.437073-1.768677,2.944641-3.485108,4.300049-5.31427c10.554931-14.243775,21.833252-28.025696,31.394348-42.909851c8.794555-13.690857,15.835266-28.520325,23.430603-42.962891c2.664734-5.067016,4.681762-10.47467,7.240661-16.285766-5.758483,0-10.885559-.132691-15.995239.106384-1.086059.050781-2.570984,1.225952-3.091369,2.271667-7.827454,15.728089-15.38025,31.5943-23.32837,47.260193-2.85498,5.627442-6.588318,10.809143-9.920898,16.194275-.416321-.143188-.832642-.286316-1.248962-.429443c1.539672-20.97168-2.442994-41.381348-5.901734-61.831848-.222656-1.316651-1.845764-3.324402-2.937988-3.406617-4.920654-.370117-9.884827-.161499-15.22284-.161499c1.06659,5.855896,2.17389,11.090027,2.949585,16.372864c1.535462,10.457703,2.958436,20.933167,4.292908,31.418518c1.05188,8.264466,2.119385,16.537537,2.771179,24.838867.508789,6.480164,1.48877,13.225037-3.549255,18.724732-3.936218,4.297058-7.871155,8.59552-11.830444,12.871399-7.038575,7.601379-15.26764,13.469787-25.36261,16.134155-4.051026,1.069153-6.567139,2.132446-4.085449,6.791565.350341.657837-.018799,1.660889.13153,2.469482.912049,4.904114,3.081421,6.569703,7.86023,5.260987c3.369079-.92273,6.572265-2.549561,9.742065-4.084046c11.101746-5.374328,19.340821-14.279297,28.362-23.328857m240.457763-57.475159c.388977-1.735534.89325-3.454345,1.148072-5.20935c1.491394-10.271912,2.782531-20.575013,4.426147-30.8219c1.127808-7.031311-5.555847-14.311706-11.623291-16.074157-7.592407-2.205384-14.785827-.917176-21.21228,2.663024-7.445068,4.147644-14.195129,9.542847-21.226502,14.382508.727845-4.819519,1.532166-10.145447,2.508362-16.609436-5.529114,1.01355-9.992431,1.687683-14.367492,2.731933-1.133912.270569-2.637696,1.554932-2.875306,2.618592-2.220337,9.93695-4.184692,19.930786-6.256042,29.901306-3.765076,18.12268-7.552551,36.240722-11.433594,54.85437c5.235779,0,10.733216,0,16.312378,0c2.029541-9.067749,5.043701-18.122376,5.914734-27.378601c1.631042-17.332825,10.650269-30.027588,23.406799-40.476563c4.218506-3.455383,9.711243-5.65332,14.950989-7.481628c5.486206-1.914307,8.89502,1.034363,8.796997,6.856384-.052063,3.09259-.361389,6.227844-.983276,9.255799-3.145508,15.314392-6.461548,30.593566-9.649964,45.89923-.933227,4.479798-1.64392,9.00586-2.524963,13.889344c1.724793,0,2.710449.025146,3.694458-.004456c4.136536-.124328,9.052979,1.030274,12.1474-.833801c2.238098-1.348267,2.17456-6.687805,2.931274-10.290711c1.894898-9.021911,3.672547-18.068481,5.9151-27.871887M533,714.5c0-91.750427,0-183.500916,0-275.204712-1.944641,0-3.337952,0-4.733032,0c0,108.013184,0,215.734314,0,323.409546c1.666565,0,3.061706,0,4.733032,0c0-15.928467,0-31.56665,0-48.204834Z"/><path d="M333.64389,510.252441c19.258057,11.309937,30.120911,27.572876,32.402405,49.588379c2.24115,21.626465-5.206848,39.799256-21.244354,53.53241-22.998322,19.693726-53.934387,21.627624-79.484894,2.536133-12.763809-9.537171-20.654892-22.273926-23.903519-37.41919-4.248504-19.806884,1.158631-37.60498,13.895005-53.376648c9.775696-12.105285,22.744384-19.066253,37.475677-21.713287c13.9068-2.498962,27.806366-.327057,40.85968,6.852203m11.36792,19.265137c-6.841278-7.523376-14.355835-14.00647-25.041961-16.447937c8.518921,15.40802,12.915161,31.367005,12.050842,48.507996c9.263489,0,18.078552,0,26.860229,0-1.148193-12.215088-5.242981-22.750855-13.86911-32.060059m-60.532409-16.43396c-5.440033,3.416199-11.096131,6.535584-16.277497,10.307068-12.912231,9.399048-18.112335,22.966614-20.266952,38.40741c8.858322,0,17.282181,0,25.772476,0c.453857-2.388062,1.171417-4.585999,1.244781-6.805176.479432-14.504883,3.713959-28.21759,11.196442-40.793823.092346-.155152-.601196-.778015-1.66925-1.115479M337.614319,570c-1.767243,0-3.534485,0-4.667145,0-1.161194,8.697449-1.590546,16.916077-3.496124,24.776917-1.897827,7.828796-5.277161,15.298461-7.995667,22.894226C334.706879,615.287354,356.505585,597.788086,358.894012,570c-6.79071,0-13.548309,0-21.279693,0m-68.308289,0c-7.062195,0-14.124374,0-21.228302,0c2.543488,27.401001,23.151154,44.860596,38.534882,48.505005-1.181793-2.345886-2.497772-4.72876-3.609131-7.203491-5.038422-11.219056-8.02887-22.872925-8.18811-35.285157-.028931-2.252014.678283-6.895324-5.509339-6.016357m30.693116-28.500183c0-9.930237,0-19.860474,0-29.906189-10.039399,3.572205-20.307068,33.561096-17.437256,50.105591c5.724487,0,11.448944,0,17.437256,0c0-6.598755,0-12.89917,0-20.199402m11.631835,20.500488c4.427033,0,8.854035,0,14.937226,0-2.84784-12.695373-4.99765-24.506225-8.282166-35.992493-1.672394-5.848327-4.89685-11.499572-11.284668-14.819946c0,16.294312.082154,32.096314-.069427,47.896057-.030274,3.155945,1.634308,3.05011,4.699035,2.916382m-20.591552,49.254517c2.602997,3.069946,5.205993,6.139892,7.809021,9.209839.297058-.298401.594146-.596863.891235-.895264c0-16.406677,0-32.813355,0-49.297058-5.992187,0-11.721435,0-17.887451,0c.751831,14.1474,2.619598,27.686035,9.187195,40.982483m33.021148-32.45752c.392701-2.81488.78537-5.629822,1.184143-8.488403-6.56073,0-12.279571,0-18.244323,0c0,8.591186,0,16.875671,0,25.160217c0,8.15503,0,16.310059,0,24.465088.514587.075928,1.029205.151795,1.543792.227722c11.002625-11.140991,14.196106-25.411682,15.516388-41.364624Z"/><path d="M327.700378,705.30896c2.579621,8.545959,4.92453,16.740478,7.382019,25.328613-21.057495,0-41.896179,0-63.305877,0c3.183868-10.872925,6.334533-21.632385,9.514465-32.491943c14.754028,0,29.376312,0,44.355011,0c.595245,2.228332,1.207459,4.52008,2.054382,7.16333Z"/><path d="M713.000549,568.053345c1.061768,7.459472,2.122925,14.475586,3.224427,21.758667-12.944825,0-25.245667,0-38.035035,0c9.656861-17.601441,19.23816-35.065003,29.291016-53.388184c1.959656,11.073547,3.739319,21.129883,5.519592,31.629517Z"/><path d="M853.999512,622.60083c-1.528199-18.074219,4.838684-33.215881,16.20874-45.907226c6.729797-7.511963,15.578125-12.855164,26.859802-9.772645c1.375611.375794,2.942505.051209,5.532532.051209-2.957398,11.489258-4.65332,22.897156-8.88324,33.271851-5.104858,12.52008-12.876037,23.710998-25.640747,30.188354-7.891662,4.004639-12.647522,1.52832-14.077087-7.831543Z"/><path d="M366.984619,638c4.904389.30304,9.347992.375,13.695954,1.056885c1.224212.192016,2.167938,2.17279,3.240295,3.333069-1.348969,1.202697-2.586701,2.582336-4.095459,3.530822-.716705.450562-1.950226.079773-2.949616.079773-48.970123.000122-97.940246.000244-146.910385-.00061-1.165893,0-2.529983.370544-3.4505-.107666-1.327011-.689331-3.201996-1.964294-3.245316-3.052856-.049835-1.252015,1.377884-3.140931,2.640885-3.729493c1.828399-.85205,4.084793-1.06604,6.159195-1.068542C276.87561,637.987,321.681641,638,366.984619,638Z"/></g><g id="ebv9iDBkf2L9_to" transform="translate(528.498871,612.522247)"><g id="ebv9iDBkf2L9_ts" transform="scale(0,0)"><g id="ebv9iDBkf2L9" transform="translate(-303.49887,-612.522247)" opacity="0"><path d="M378,655c-67.467255,0-134.434494,0-202,0c0-1.863525,0-3.462891,0-5.062195-.000061-48.327637-.002762-96.655273.001923-144.982879.001037-10.605835,9.36885-19.952363,20.000427-19.952973c71.658203-.003998,143.316437-.00357,214.97464-.000275c10.467407.000489,20.01947,9.507599,20.020691,19.935517.005554,48.327637.00235,96.655273.002319,144.98291c0,1.480774,0,2.961609,0,5.079895-17.649902,0-35.074951,0-53,0M333.324707,510.047089c-12.734131-6.973908-26.633697-9.145813-40.540497-6.646851-14.731293,2.647034-27.699981,9.608002-37.475677,21.713287-12.736374,15.771668-18.143509,33.569764-13.895005,53.376648c3.248627,15.145264,11.13971,27.882019,23.903519,37.41919c25.550507,19.091491,56.486572,17.157593,79.484894-2.536133c16.037506-13.733154,23.485504-31.905945,21.244354-53.53241-2.281494-22.015503-13.144348-38.278442-32.721588-49.793731M366.48764,638c-44.805999,0-89.61203-.013-134.417968.041382-2.074402.002502-4.330796.216492-6.159195,1.068542-1.263001.588562-2.69072,2.477478-2.640885,3.729493.04332,1.088562,1.918305,2.363525,3.245316,3.052856.920517.47821,2.284607.107666,3.4505.107666c48.970139.000854,97.940262.000732,146.910385.00061.99939,0,2.232911.370789,2.949616-.079773c1.508758-.948486,2.74649-2.328125,4.095459-3.530822-1.072357-1.160279-2.016083-3.141053-3.240295-3.333069-4.347962-.681885-8.791565-.753845-14.192933-1.056885Z" fill="#f6ae84"/><path d="M361,697.99939c-8.82666,0-17.15329,0-25.696716,0c2.951629,10.127624,5.731018,20.07843,8.862854,29.917053.419677,1.31842,2.598297,2.887634,4.000152,2.92511c3.679932.098266,6.605133,1.408813,6.63086,5.022461.029785,4.188903-3.52887,4.189392-6.889771,4.180664-29.65805-.076966-59.316437-.046143-88.974701-.042481-3.162536.000366-7.054703.453064-6.778656-4.180664.212357-3.564514,3.041214-5.20282,6.737549-4.833191.813446.081299,1.641937.011902,2.798981.011902c3.217254-10.83905,6.411926-21.601929,9.795196-33.000366-2.443115,0-4.226715,0-6.010315,0-22.327011-.000183-44.65538-.148438-66.980545.054687-13.564682.123352-23.490051-10.570495-22.545837-22.293029.3199-3.971741.05069-7.990906.05069-12.374573c84.813675,0,169.52626,0,254.921585,0-.481781,9.794433,2.811218,20.466064-6.463745,28.66333-4.293305,3.794373-9.220002,5.930115-14.971375,5.939941-15.995361.027161-31.990784.009217-48.486206.009156m-33.534332,6.95813c-.612213-2.29181-1.224427-4.583558-1.819672-6.81189-14.978699,0-29.600983,0-44.355011,0-3.179932,10.859558-6.330597,21.619018-9.514465,32.491943c21.409698,0,42.248382,0,63.305877,0-2.457489-8.588135-4.802398-16.782654-7.616729-25.680053Z" fill="#f6ae84"/><path d="M345.26825,529.767334c8.369689,9.059448,12.464477,19.595215,13.61267,31.810303-8.781677,0-17.59674,0-26.860229,0c.864319-17.140991-3.531921-33.099976-12.050842-48.507996c10.686126,2.441467,18.200683,8.924561,25.298401,16.697693Z" fill="#f6ae84"/><path d="M284.850067,513.050049c.697388.371033,1.39093.993896,1.298584,1.149048-7.482483,12.576233-10.71701,26.28894-11.196442,40.793823-.073364,2.219177-.790924,4.417114-1.244781,6.805176-8.490295,0-16.914154,0-25.772476,0c2.154617-15.440796,7.354721-29.008362,20.266952-38.40741c5.181366-3.771484,10.837464-6.890869,16.648163-10.340637Z" fill="#f6ae84"/><path d="M338.101196,570c7.244507,0,14.002106,0,20.792816,0-2.388427,27.788086-24.187133,45.287354-37.438629,47.671143c2.718506-7.595765,6.09784-15.06543,7.995667-22.894226c1.905578-7.86084,2.33493-16.079468,3.496124-24.776917c1.13266,0,2.899902,0,5.154022,0Z" fill="#f6ae84"/><path d="M269.780426,570c5.713226-.878967,5.006012,3.764343,5.034943,6.016357.15924,12.412232,3.149688,24.066101,8.18811,35.285157c1.111359,2.474731,2.427338,4.857605,3.609131,7.203491C271.228882,614.860596,250.621216,597.401001,248.077728,570c7.103928,0,14.166107,0,21.702698,0Z" fill="#f6ae84"/><path d="M299.999146,541.999695c0,6.800354,0,13.100769,0,19.699524-5.988312,0-11.712769,0-17.440247-.005615-2.866821-16.53888,7.400848-46.527771,17.440247-50.099976c0,10.045715,0,19.975952,0,30.406067Z" fill="#f6ae84"/><path d="M311.149323,562.000244c-2.583069.133789-4.247651.239624-4.217377-2.916321.151581-15.799743.069427-31.601745.069427-47.896057c6.387818,3.320374,9.612274,8.971619,11.284668,14.819946c3.284516,11.486268,5.434326,23.29712,8.282166,35.992493-6.083191,0-10.510193,0-15.418884-.000061Z" fill="#f6ae84"/><path d="M290.985504,610.879517c-6.513672-12.921143-8.381439-26.459778-9.13327-40.607178c6.166016,0,11.895264,0,17.887451,0c0,16.483703,0,32.890381,0,49.297058-.297089.298401-.594177.596863-.891235.895264-2.603028-3.069947-5.206024-6.139893-7.862946-9.585144Z" fill="#f6ae84"/><path d="M324.033997,579.25238c-1.293702,15.497864-4.487183,29.768555-15.489808,40.909546-.514587-.075927-1.029205-.151794-1.543792-.227722c0-8.155029,0-16.310058,0-24.465088c0-8.284546,0-16.569031,0-25.160217c5.964752,0,11.683593,0,18.244323,0-.398773,2.858581-.791442,5.673523-1.210723,8.943481Z" fill="#f6ae84"/></g></g></g><g><g id="ebv9iDBkf2L21_to" transform="translate(533.157288,577.527267)"><g id="ebv9iDBkf2L21_ts" transform="scale(0,0)"><path id="ebv9iDBkf2L21" d="M638.170166,643.999817c-2.620422-.000061-4.779358-.000061-7.77002-.000061c3.547242-6.649109,6.769349-12.861694,10.149964-18.986817c5.770019-10.454162,11.633667-20.85675,17.468567-31.275085c7.345215-13.114868,14.712341-26.217407,22.049133-39.337036c6.999451-12.516541,14.315491-24.874634,20.777039-37.663818c2.375122-4.700928,5.808593-5.468262,9.926269-5.657227c3.241089-.148743,6.514343.40274,9.489624.622314c7.235596,44.089844,14.415772,87.841553,21.653687,131.945618-5.420716,0-10.795655,0-17.070435,0-1.997864-12.849914-4.046081-26.023437-6.005798-38.627685-7.972656,0-15.549439-.002808-23.126221.000793-6.495361.003052-13.047546.5448-19.468689-.142029-5.465027-.584534-8.062927,1.853577-10.277893,6.133484-5.683227,10.981018-11.53418,21.875122-17.415222,32.98761-3.267883,0-6.593262,0-10.380005-.000061m74.829773-76.389832c-1.779663-10.056274-3.559326-20.11261-5.518982-31.186157-10.052856,18.323181-19.634155,35.786743-29.291016,53.388184c12.789368,0,25.09021,0,38.035035,0-1.101502-7.283081-2.162659-14.299195-3.225037-22.202027Z" transform="translate(-686.157288,-577.527267)" opacity="0" fill="#f6ae84"/></g></g><g id="ebv9iDBkf2L22_to" transform="translate(531.899109,599.987457)"><g id="ebv9iDBkf2L22_ts" transform="scale(0,0)"><path id="ebv9iDBkf2L22" d="M882.669983,553.700378c7.100891-.400085,13.842041-.751831,20.578125-.671142c4.741089.056763,9.509399.489441,14.18573,1.247375c1.043091.169007,2.658325,2.557312,2.470581,3.662232-1.518433,8.935303-3.737671,17.757324-5.104553,26.711303-2.375,15.557374-8.610657,30.476746-7.768616,46.549012.183472,3.502014.760254,6.98352,1.216064,11.005432-1.065673.440307-2.630798,1.2005-4.267761,1.744812-10.833008,3.602722-13.866089,1.291992-13.9776-10.589661-.011902-1.262878-.001587-2.526001-.001587-5.066284-3.205017,3.290222-5.461609,5.876831-7.994934,8.155823-7.07489,6.364502-15.089355,11.020324-24.92102,10.462707-11.469056-.650451-17.646851-7.790771-20.124817-18.601684-1.962158-8.560364-1.06305-17.073609,1.177063-25.21521c5.59259-20.325867,16.212402-37.198426,35.766662-46.994263c2.52887-1.266846,5.590149-1.470947,8.766663-2.400452m-28.670227,69.356324c1.429321,8.903991,6.185181,11.38031,14.076843,7.375671c12.76471-6.477356,20.535889-17.668274,25.640747-30.188354c4.22992-10.374695,5.925842-21.782593,8.88324-33.271851-2.590027,0-4.156921.324585-5.532532-.051209-11.281677-3.082519-20.130005,2.260682-26.859802,9.772645-11.370056,12.691345-17.736939,27.833007-16.208496,46.363098Z" transform="translate(-877.899109,-599.987457)" opacity="0" fill="#f6ae84"/></g></g><g id="ebv9iDBkf2L23_to" transform="translate(531.659119,622.630707)"><g id="ebv9iDBkf2L23_ts" transform="scale(0,0)"><path id="ebv9iDBkf2L23" d="M769.769836,662.729126c-8.774047,8.79425-17.013122,17.699219-28.114868,23.073547-3.1698,1.534485-6.372986,3.161316-9.742065,4.084046-4.778809,1.308716-6.948181-.356873-7.86023-5.260987-.150329-.808593.218811-1.811645-.13153-2.469482-2.48169-4.659119.034423-5.722412,4.085449-6.791565c10.09497-2.664368,18.324035-8.532776,25.36261-16.134155c3.959289-4.275879,7.894226-8.574341,11.830444-12.871399c5.038025-5.499695,4.058044-12.244568,3.549255-18.724732-.651794-8.30133-1.719299-16.574401-2.771179-24.838867-1.334472-10.485351-2.757446-20.960815-4.292908-31.418518-.775695-5.282837-1.882995-10.516968-2.949585-16.372864c5.338013,0,10.302186-.208618,15.22284.161499c1.092224.082215,2.715332,2.089966,2.937988,3.406617c3.45874,20.4505,7.441406,40.860168,5.901734,61.831848.41632.143127.832641.286255,1.248962.429443c3.33258-5.385132,7.065918-10.566833,9.920898-16.194275c7.94812-15.665893,15.500916-31.532104,23.32837-47.260193.520385-1.045715,2.00531-2.220886,3.091369-2.271667c5.10968-.239075,10.236756-.106384,15.995239-.106384-2.558899,5.811096-4.575927,11.21875-7.240661,16.285766-7.595337,14.442566-14.636048,29.272034-23.430603,42.962891-9.561096,14.884155-20.839417,28.666076-31.394348,42.909851-1.355408,1.829162-2.862976,3.545593-4.547181,5.56958Z" transform="translate(-779.659119,-622.630707)" opacity="0" fill="#f6ae84"/></g></g><g id="ebv9iDBkf2L24_to" transform="translate(531.9,598.02179)"><g id="ebv9iDBkf2L24_ts" transform="scale(0,0)"><path id="ebv9iDBkf2L24" d="M1010.265747,605.382019c-2.033569,9.420044-3.811218,18.466614-5.706116,27.488525-.756714,3.602906-.693176,8.942444-2.931274,10.290711-3.094421,1.864075-8.010864.709473-12.1474.833801-.984009.029602-1.969665.004456-3.694458.004456.881043-4.883484,1.591736-9.409546,2.524963-13.889344c3.188416-15.305664,6.504456-30.584838,9.649964-45.89923.621887-3.027955.931213-6.163209.983276-9.255799.098023-5.822021-3.310791-8.770691-8.796997-6.856384-5.239746,1.828308-10.732483,4.026245-14.950989,7.481628-12.75653,10.448975-21.775757,23.143738-23.406799,40.476563-.871033,9.256225-3.885193,18.310852-5.914734,27.378601-5.579162,0-11.076599,0-16.312378,0c3.881043-18.613648,7.668518-36.73169,11.433594-54.85437c2.07135-9.97052,4.035705-19.964356,6.256042-29.901306.23761-1.06366,1.741394-2.348023,2.875306-2.618592c4.375061-1.04425,8.838378-1.718383,14.367492-2.731933-.976196,6.463989-1.780517,11.789917-2.508362,16.609436c7.031373-4.839661,13.781434-10.234864,21.226502-14.382508c6.426453-3.5802,13.619873-4.868408,21.21228-2.663024c6.067444,1.762451,12.751099,9.042846,11.623291,16.074157-1.643616,10.246887-2.934753,20.549988-4.426147,30.8219-.254822,1.755005-.759095,3.473816-1.357056,5.592712Z" transform="translate(-972.868622,-598.02179)" opacity="0" fill="#f6ae84"/></g></g></g><g id="ebv9iDBkf2L25_ts" transform="translate(530.633484,601.000061) scale(0,0)"><path id="ebv9iDBkf2L25" d="M533,715c0,16.138184,0,31.776367,0,47.704834-1.671326,0-3.066467,0-4.733032,0c0-107.675232,0-215.396362,0-323.409546c1.39508,0,2.788391,0,4.733032,0C533,530.999084,533,622.749573,533,715Z" transform="translate(-530.633484,-601.000061)" opacity="0" fill="#f6ae84"/></g></svg>
